<?xml version="1.0" standalone="no"?>
<!DOCTYPE svg PUBLIC "-//W3C//DTD SVG 20010904//EN"
 "http://www.w3.org/TR/2001/REC-SVG-20010904/DTD/svg10.dtd">
<svg version="1.0" xmlns="http://www.w3.org/2000/svg"
 width="512.000000pt" height="512.000000pt" viewBox="0 0 512.000000 512.000000"
 preserveAspectRatio="xMidYMid meet">
<metadata>
Created by potrace 1.14, written by Peter Selinger 2001-2017
</metadata>
<g transform="translate(0.000000,512.000000) scale(0.100000,-0.100000)"
fill="#000000" stroke="none">
<path d="M4317 4751 l-187 -35 -34 -105 c-120 -373 -257 -823 -253 -827 6 -6
833 142 858 154 14 6 7 54 -55 407 -40 220 -75 405 -79 412 -19 30 -61 29
-250 -6z"/>
<path d="M3293 4562 c-254 -48 -466 -91 -471 -97 -13 -13 -295 -916 -289 -922
5 -5 949 166 956 173 4 4 291 916 291 927 0 10 16 13 -487 -81z"/>
<path d="M1993 4321 c-254 -48 -464 -89 -467 -91 -5 -6 -294 -924 -291 -927 3
-5 940 169 946 175 6 7 271 849 284 905 4 15 3 27 -1 26 -5 -1 -217 -40 -471
-88z"/>
<path d="M755 4091 c-225 -42 -416 -80 -423 -85 -37 -23 -35 -51 34 -446 37
-212 71 -389 75 -394 10 -12 430 62 445 78 6 6 73 211 149 456 76 245 140 451
143 458 5 15 54 23 -423 -67z"/>
<path d="M470 1600 c0 -1217 0 -1230 20 -1250 20 -20 33 -20 2155 -20 2122 0
2135 0 2155 20 20 20 20 33 20 1250 l0 1230 -2175 0 -2175 0 0 -1230z m2077
826 c27 -13 408 -270 846 -569 129 -88 171 -160 170 -290 -1 -80 -32 -153 -85
-203 -44 -42 -900 -622 -947 -641 -55 -24 -156 -21 -217 6 -59 26 -123 87
-156 151 l-23 45 -3 634 c-2 557 -1 640 13 682 31 91 99 160 192 195 49 18
167 13 210 -10z"/>
</g>
</svg>
